<?xml version="1.0" encoding="utf-8"?>
<!-- Generator: Adobe Illustrator 17.1.0, SVG Export Plug-In . SVG Version: 6.00 Build 0)  -->
<!DOCTYPE svg PUBLIC "-//W3C//DTD SVG 1.1//EN" "http://www.w3.org/Graphics/SVG/1.1/DTD/svg11.dtd">
<svg version="1.1" id="Layer_1" xmlns="http://www.w3.org/2000/svg" xmlns:xlink="http://www.w3.org/1999/xlink" x="0px" y="0px"
	 viewBox="0 0 841.9 595.3" enable-background="new 0 0 841.9 595.3" xml:space="preserve">
<g>
	<defs>
		<rect id="SVGID_1_" x="87" y="95.7" width="668.1" height="402.3"/>
	</defs>
	<clipPath id="SVGID_2_">
		<use xlink:href="#SVGID_1_"  overflow="visible"/>
	</clipPath>
	<g clip-path="url(#SVGID_2_)">
		<path fill="#60604D" d="M265.5,134.4v34.3h-11v-34.3h-11v-8.6h34.8l-2,8.6H265.5z"/>
		<path fill="#60604D" d="M311.5,166.8c-0.4-0.5-0.7-1.1-1-1.6c-0.3-0.5-0.7-1.1-1-1.6c-0.4-0.6-0.8-1.3-1.3-2
			c-1.3-2.2-2.4-3.9-3.2-5.2c-0.8-1.3-1.5-2.3-2-3c-0.5-0.7-0.9-1.2-1.2-1.4c-0.3-0.2-0.5-0.4-0.8-0.4h-0.6v17.2h-10.6v-42.9h16.5
			c2.3,0,4.6,0.2,6.8,0.7c2.2,0.5,4,1.4,5.4,2.9c1.4,1.4,2.4,2.9,3,4.5c0.6,1.6,0.9,3.2,0.9,5c0,1.5-0.2,2.9-0.7,4.3
			c-0.5,1.3-1.1,2.5-1.9,3.6c-0.8,1-1.7,1.9-2.7,2.6c-1,0.7-2.1,1.2-3.1,1.4c0.5,0.6,1.1,1.4,1.8,2.4c0.7,1,1.5,2.1,2.3,3.4
			c0.8,1.2,1.6,2.5,2.5,3.8c0.8,1.3,1.6,2.5,2.3,3.7c0.7,1.2,1.3,2.2,1.8,3c0.5,0.8,0.9,1.4,1.1,1.7h-12.8
			C312.3,168,311.9,167.3,311.5,166.8z M309.7,134.9c-1.1-0.9-3.1-1.3-6-1.3h-3.7v10h3.6c3,0,5-0.4,6.1-1.2c1.1-0.8,1.7-2,1.7-3.7
			C311.3,137.1,310.8,135.8,309.7,134.9z"/>
		<path fill="#60604D" d="M371.6,158.3c-0.2,1.1-0.4,2.1-0.7,2.9c-0.3,0.8-0.7,1.6-1.1,2.2c-0.4,0.6-1,1.2-1.6,1.8
			c-1.2,1.1-2.9,2.2-5,3.1c-2.2,0.9-5,1.3-8.4,1.3c-3.6,0-6.8-0.4-9.4-1.3c-2.6-0.9-4.7-2.2-6.1-4.1c-0.9-1.2-1.6-2.5-1.8-4
			c-0.3-1.4-0.4-3.1-0.4-5.1v-29.2h11v27.8c0,1.3,0.1,2.3,0.2,3c0.1,0.7,0.4,1.4,0.8,1.9c1.1,1.6,3,2.3,5.5,2.3c1.1,0,2-0.2,2.9-0.5
			c0.8-0.3,1.5-0.7,2.1-1.2c0.2-0.2,0.4-0.4,0.6-0.7c0.2-0.3,0.3-0.6,0.5-1.1c0.2-0.5,0.3-1.1,0.3-1.8c0.1-0.7,0.1-1.7,0.1-2.8v-27
			h11v28.5C371.8,155.9,371.8,157.2,371.6,158.3z"/>
		<path fill="#60604D" d="M415.3,168.4c-2.1,0.7-4.5,1-7.3,1c-3.1,0-5.9-0.3-8.4-1c-2.5-0.7-4.7-1.9-6.6-3.6
			c-4.4-4.1-6.7-9.5-6.7-16.4c0-2.9,0.3-5.4,0.8-7.7c0.6-2.3,1.4-4.4,2.7-6.4c1.9-3,4.4-5.4,7.7-7c3.3-1.6,6.8-2.5,10.6-2.5
			c1.1,0,2.3,0.1,3.5,0.3c1.2,0.2,2.3,0.4,3.4,0.8c1.1,0.3,2,0.7,2.9,1.1c0.9,0.4,1.6,0.8,2.3,1.3l-4.8,7c-1.1-0.7-2.3-1.2-3.5-1.6
			c-1.2-0.4-2.4-0.6-3.5-0.6c-1.3,0-2.6,0.3-3.9,0.8c-1.3,0.5-2.3,1.1-3.1,1.9c-1.1,1.1-1.9,2.5-2.3,4.1c-0.4,1.7-0.6,3.7-0.6,6.2
			c0,3.1,0.1,5.6,0.4,7.4c0.3,1.8,0.8,3.2,1.6,4.3c0.9,1.2,2,2.2,3.3,2.8c1.3,0.6,2.9,1,4.8,1c1.4,0,2.7-0.2,3.9-0.5
			c1.2-0.4,2.5-1,3.9-2l4.8,6.1C419.3,166.7,417.4,167.7,415.3,168.4z"/>
		<path fill="#60604D" d="M444.9,146.5v22.2h-11v-42.9h11v19.3l12-19.3h13.2l-13.8,19.8l16.1,23.1h-14.2L444.9,146.5z"/>
	</g>
</g>
<g>
	<path fill="#60604D" d="M275.6,230.4c-2.1,0.7-4.5,1-7.3,1c-3.1,0-5.9-0.3-8.4-1c-2.5-0.7-4.7-1.9-6.6-3.6
		c-4.4-4.1-6.7-9.5-6.7-16.4c0-2.9,0.3-5.4,0.8-7.7c0.6-2.3,1.4-4.4,2.7-6.4c1.9-3,4.4-5.4,7.7-7c3.3-1.6,6.8-2.5,10.6-2.5
		c1.1,0,2.3,0.1,3.5,0.3c1.2,0.2,2.3,0.4,3.4,0.8c1.1,0.3,2,0.7,2.9,1.1c0.9,0.4,1.6,0.8,2.3,1.3l-4.8,7c-1.1-0.7-2.3-1.2-3.5-1.6
		c-1.2-0.4-2.4-0.6-3.5-0.6c-1.3,0-2.6,0.3-3.9,0.8c-1.3,0.5-2.3,1.1-3.1,1.9c-1.1,1.1-1.9,2.5-2.3,4.1c-0.4,1.7-0.6,3.7-0.6,6.2
		c0,3.1,0.1,5.6,0.4,7.4c0.3,1.8,0.8,3.2,1.6,4.3c0.9,1.2,2,2.2,3.3,2.8c1.3,0.6,2.9,1,4.8,1c1.4,0,2.7-0.2,3.9-0.5
		c1.2-0.4,2.5-1,3.9-2l4.8,6.1C279.6,228.7,277.7,229.7,275.6,230.4z"/>
	<path fill="#60604D" d="M294.2,187.8h27.3l-1.6,8.2h-15.1v8.2h12.7v8.2h-12.7v9.6h17.2v8.6h-27.7V187.8z"/>
	<path fill="#60604D" d="M349.7,213.2c-0.5-1-1-2.2-1.5-3.5c-0.6-1.3-1.1-2.6-1.6-3.8c-0.5-1.2-0.9-2.3-1.3-3.1l-0.5-1.3l0.1,1.6
		c0.1,1,0.1,2.3,0.2,3.8l0.2,4.3c0.1,1.4,0.1,2.5,0.1,3.2l0.2,16.4h-10v-42.9h11.7l8.3,16.5c0.5,0.9,1,2,1.4,3.2
		c0.5,1.2,0.9,2.4,1.3,3.5s0.7,2,1,2.8l0.4,1.2l-0.2-1.3c-0.1-0.9-0.1-2-0.2-3.3c-0.1-1.3-0.2-2.5-0.2-3.8c-0.1-1.3-0.1-2.3-0.1-3.1
		l-0.2-15.7h9.9v42.9h-11L349.7,213.2z"/>
	<path fill="#60604D" d="M402.8,196.4v34.3h-11v-34.3h-11v-8.6h34.8l-2,8.6H402.8z"/>
	<path fill="#60604D" d="M448.9,228.8c-0.4-0.5-0.7-1.1-1-1.6c-0.3-0.5-0.7-1.1-1-1.6c-0.4-0.6-0.8-1.3-1.3-2
		c-1.3-2.2-2.4-3.9-3.2-5.2c-0.8-1.3-1.5-2.3-2-3c-0.5-0.7-0.9-1.2-1.2-1.4c-0.3-0.2-0.5-0.4-0.8-0.4h-0.6v17.2h-10.6v-42.9h16.5
		c2.3,0,4.6,0.2,6.8,0.7c2.2,0.5,4,1.4,5.4,2.9c1.4,1.4,2.4,2.9,3,4.5c0.6,1.6,0.9,3.2,0.9,5c0,1.5-0.2,2.9-0.7,4.3
		c-0.5,1.3-1.1,2.5-1.9,3.6c-0.8,1-1.7,1.9-2.7,2.6c-1,0.7-2.1,1.2-3.1,1.4c0.5,0.6,1.1,1.4,1.8,2.4c0.7,1,1.5,2.1,2.3,3.4
		c0.8,1.2,1.6,2.5,2.5,3.8c0.8,1.3,1.6,2.5,2.3,3.7c0.7,1.2,1.3,2.2,1.8,3c0.5,0.8,0.9,1.4,1.1,1.7h-12.8
		C449.7,230,449.3,229.3,448.9,228.8z M447.1,196.9c-1.1-0.9-3.1-1.3-6-1.3h-3.7v10h3.6c3,0,5-0.4,6.1-1.2c1.1-0.8,1.7-2,1.7-3.7
		C448.7,199.1,448.1,197.8,447.1,196.9z"/>
	<path fill="#60604D" d="M509,220.3c-0.2,1.1-0.4,2.1-0.7,2.9c-0.3,0.8-0.7,1.6-1.1,2.2c-0.4,0.6-1,1.2-1.6,1.8
		c-1.2,1.1-2.9,2.2-5,3.1c-2.2,0.9-5,1.3-8.4,1.3c-3.6,0-6.8-0.4-9.4-1.3c-2.6-0.9-4.7-2.2-6.1-4.1c-0.9-1.2-1.6-2.5-1.8-4
		c-0.3-1.4-0.4-3.1-0.4-5.1v-29.2h11v27.8c0,1.3,0.1,2.3,0.2,3c0.1,0.7,0.4,1.4,0.8,1.9c1.1,1.6,3,2.3,5.5,2.3c1.1,0,2-0.2,2.9-0.5
		c0.8-0.3,1.5-0.7,2.1-1.2c0.2-0.2,0.4-0.4,0.6-0.7c0.2-0.3,0.3-0.6,0.5-1.1c0.2-0.5,0.3-1.1,0.3-1.8c0.1-0.7,0.1-1.7,0.1-2.8v-27
		h11v28.5C509.2,217.9,509.1,219.2,509,220.3z"/>
	<path fill="#60604D" d="M562.6,208.6c-0.1-0.6-0.1-1.3-0.2-2.3c-0.1-1-0.1-1.9-0.1-2.8c0-0.9-0.1-1.7-0.1-2.4v-1l-0.3,1
		c-0.2,0.6-0.4,1.4-0.6,2.3c-0.2,0.9-0.5,1.8-0.7,2.7c-0.3,0.9-0.5,1.7-0.6,2.3l-6.4,22.4h-9.2l-5.9-21.7c-0.2-0.5-0.4-1.3-0.6-2.3
		c-0.2-1.1-0.5-2.2-0.7-3.3c-0.2-1.1-0.5-2.1-0.7-2.9l-0.2-1.3l-0.1,1.2c0,0.8,0,1.7-0.1,2.8c-0.1,1.1-0.1,2.2-0.1,3.3
		c0,1.1-0.1,2-0.1,2.7l-1.2,21.7h-10.8l4.6-42.9h13.5l5.4,20.8c0.2,0.7,0.4,1.6,0.6,2.5c0.2,1,0.4,1.9,0.5,2.8
		c0.2,0.9,0.3,1.6,0.4,2.3l0.2,0.9l0.2-1c0.2-0.7,0.3-1.5,0.5-2.5c0.2-1,0.4-1.9,0.6-2.9c0.2-1,0.4-1.8,0.6-2.4l5.6-20.4h13.3
		l4.4,42.9h-10.5L562.6,208.6z"/>
</g>
<g>
	<path fill="#006935" d="M280,284.9c-1,1.8-2.3,3.4-4.1,4.7c-1.8,1.3-3.9,2.3-6.4,3.1c-2.5,0.7-5.3,1.1-8.3,1.1
		c-2.7,0-5.3-0.3-7.9-0.9c-2.6-0.6-5.2-1.5-7.9-2.8l3.5-8.2c2.2,0.9,4.3,1.7,6.3,2.3c2,0.6,4.1,0.9,6.5,0.9c2.5,0,4.4-0.3,5.7-1
		c1.3-0.7,1.9-1.7,1.9-3.2c0-1.2-0.4-2.2-1.3-2.9c-0.9-0.8-2.3-1.4-4.3-1.8l-5.4-1.2c-2.3-0.6-4.3-1.4-5.8-2.4
		c-1.5-1-2.7-2.3-3.5-3.7c-1.2-2.1-1.8-4.3-1.8-6.6c0-2,0.4-3.8,1.2-5.5c0.8-1.7,2-3.1,3.5-4.3c1.5-1.2,3.3-2.1,5.4-2.8
		c2.1-0.7,4.4-1,7.1-1c1.4,0,2.9,0.1,4.4,0.3c1.5,0.2,3,0.5,4.5,0.9c1.5,0.4,2.8,0.8,4.2,1.4c1.3,0.5,2.5,1.1,3.4,1.8l-5.1,7.4
		c-4-2.1-7.7-3.2-11.1-3.2c-1.7,0-3.1,0.4-4.2,1.1c-1.1,0.7-1.6,1.7-1.6,2.9c0,1,0.3,1.8,0.9,2.4c0.6,0.5,1.8,1,3.6,1.4l5.8,1.3
		c3.8,0.9,6.8,2.4,9,4.4c2.2,2.1,3.3,4.7,3.3,8C281.5,281,281,283.1,280,284.9z"/>
	<path fill="#006935" d="M295.7,292.8v-42.9h11v34.3h16.5l-2.3,8.6H295.7z"/>
	<path fill="#006935" d="M334.9,249.9h11v42.9h-11V249.9z"/>
	<path fill="#006935" d="M362.7,249.9H390l-1.6,8.2h-15.1v8.2H386v8.2h-12.7v9.6h17.2v8.6h-27.7V249.9z"/>
	<path fill="#006935" d="M437.5,280c-0.8,2.4-2,4.5-3.5,6.3c-1.5,1.8-3.2,3.2-5.3,4.2c-2,1-4.2,1.7-6.6,2c-0.9,0.1-1.9,0.2-3,0.2
		c-1.1,0-2.5,0-4.2,0h-11v-42.9h11.6c1.2,0,2.4,0,3.6,0c1.2,0,2.2,0.1,2.9,0.2c5.3,0.6,9.4,2.7,12.4,6.3c2.9,3.6,4.4,8.7,4.4,15.2
		C438.8,274.8,438.4,277.6,437.5,280z M426.7,266.3c-0.3-1.8-0.7-3.4-1.3-4.6c-0.6-1.3-1.5-2.2-2.6-2.9c-1.1-0.7-2.4-1-4-1h-3.9
		v26.9h5.1c0.9,0,1.8-0.2,2.7-0.5c0.8-0.4,1.6-1,2.2-1.9c0.6-0.9,1.2-2.2,1.5-3.7c0.4-1.5,0.6-3.5,0.6-5.8
		C427,270.3,426.9,268.2,426.7,266.3z"/>
	<path fill="#006935" d="M475.4,290.9c-0.4-0.5-0.7-1.1-1-1.6c-0.3-0.5-0.7-1.1-1-1.6c-0.4-0.6-0.8-1.3-1.3-2
		c-1.3-2.2-2.4-3.9-3.2-5.2c-0.8-1.3-1.5-2.3-2-3c-0.5-0.7-0.9-1.2-1.2-1.4c-0.3-0.2-0.5-0.4-0.8-0.4h-0.6v17.2h-10.6v-42.9h16.5
		c2.3,0,4.6,0.2,6.8,0.7c2.2,0.5,4,1.4,5.4,2.9c1.4,1.4,2.4,2.9,3,4.5c0.6,1.6,0.9,3.2,0.9,5c0,1.5-0.2,2.9-0.7,4.3
		c-0.5,1.3-1.1,2.5-1.9,3.6c-0.8,1-1.7,1.9-2.7,2.6c-1,0.7-2.1,1.2-3.1,1.4c0.5,0.6,1.1,1.4,1.8,2.4c0.7,1,1.5,2.1,2.3,3.4
		c0.8,1.2,1.6,2.5,2.5,3.8c0.8,1.3,1.6,2.5,2.3,3.7c0.7,1.2,1.3,2.2,1.8,3c0.5,0.8,0.9,1.4,1.1,1.7h-12.8
		C476.2,292.1,475.7,291.5,475.4,290.9z M473.5,259c-1.1-0.9-3.1-1.3-6-1.3h-3.7v10h3.6c3,0,5-0.4,6.1-1.2c1.1-0.8,1.7-2,1.7-3.7
		C475.1,261.2,474.6,259.9,473.5,259z"/>
	<path fill="#006935" d="M501.4,249.9h27.3l-1.6,8.2H512v8.2h12.7v8.2H512v9.6h17.2v8.6h-27.7V249.9z"/>
	<path fill="#006935" d="M568.5,292.5c-2.1,0.7-4.5,1-7.3,1c-3.1,0-5.9-0.3-8.4-1c-2.5-0.7-4.7-1.9-6.6-3.6
		c-4.4-4.1-6.7-9.5-6.7-16.4c0-2.9,0.3-5.4,0.8-7.7c0.6-2.3,1.4-4.4,2.7-6.4c1.8-3,4.4-5.4,7.7-7c3.3-1.6,6.8-2.5,10.6-2.5
		c1.1,0,2.3,0.1,3.5,0.3c1.2,0.2,2.3,0.4,3.4,0.8c1.1,0.3,2,0.7,2.9,1.1c0.9,0.4,1.6,0.8,2.3,1.3l-4.8,7c-1.1-0.7-2.3-1.2-3.5-1.6
		c-1.2-0.4-2.4-0.6-3.5-0.6c-1.3,0-2.6,0.3-3.9,0.8c-1.3,0.5-2.3,1.1-3.1,1.9c-1.1,1.1-1.9,2.5-2.3,4.1c-0.4,1.7-0.6,3.7-0.6,6.2
		c0,3.1,0.1,5.6,0.4,7.4c0.3,1.8,0.8,3.2,1.6,4.3c0.9,1.2,2,2.2,3.3,2.8c1.3,0.6,2.9,1,4.8,1c1.4,0,2.7-0.2,3.9-0.5
		c1.2-0.4,2.5-1,3.9-2l4.8,6.1C572.5,290.8,570.6,291.8,568.5,292.5z"/>
	<path fill="#006935" d="M609.4,274.5h-11.5v18.3h-10.7v-42.9h10.7v16h11.5v-16h11v42.9h-11V274.5z"/>
	<path fill="#006935" d="M654.3,258.5v34.3h-11v-34.3h-11v-8.6h34.8l-2,8.6H654.3z"/>
</g>
<g>
	<defs>
		<rect id="SVGID_3_" x="87" y="95.7" width="668.1" height="402.3"/>
	</defs>
	<clipPath id="SVGID_4_">
		<use xlink:href="#SVGID_3_"  overflow="visible"/>
	</clipPath>
	
		<circle clip-path="url(#SVGID_4_)" fill="none" stroke="#60604D" stroke-width="12.343" stroke-miterlimit="10" cx="122.2" cy="340.5" r="29"/>
	
		<circle clip-path="url(#SVGID_4_)" fill="none" stroke="#60604D" stroke-width="12.343" stroke-miterlimit="10" cx="204.5" cy="340.5" r="29"/>
	
		<circle clip-path="url(#SVGID_4_)" fill="none" stroke="#60604D" stroke-width="12.343" stroke-miterlimit="10" cx="534" cy="340.5" r="29"/>
	<g clip-path="url(#SVGID_4_)">
		<path fill="#B5B4A5" d="M104.9,420v27h-8.6v-27h-8.7v-6.8h27.3l-1.6,6.8H104.9z"/>
		<path fill="#B5B4A5" d="M141.3,445.5c-0.3-0.4-0.6-0.9-0.8-1.3c-0.2-0.4-0.5-0.8-0.8-1.3c-0.3-0.5-0.6-1-1-1.6
			c-1-1.7-1.9-3.1-2.5-4.1c-0.6-1-1.2-1.8-1.6-2.4c-0.4-0.6-0.7-0.9-0.9-1.1c-0.2-0.2-0.4-0.3-0.6-0.3h-0.5V447h-8.3v-33.7h13
			c1.8,0,3.6,0.2,5.3,0.6c1.7,0.4,3.1,1.1,4.2,2.2c1.1,1.1,1.9,2.3,2.3,3.5c0.4,1.2,0.7,2.5,0.7,3.9c0,1.2-0.2,2.3-0.6,3.4
			c-0.4,1-0.9,2-1.5,2.8c-0.6,0.8-1.3,1.5-2.1,2.1c-0.8,0.6-1.6,0.9-2.5,1.1c0.4,0.5,0.8,1.1,1.4,1.9c0.6,0.8,1.2,1.7,1.8,2.6
			c0.6,1,1.3,2,1.9,3c0.7,1,1.3,2,1.8,2.9c0.6,0.9,1,1.7,1.4,2.4c0.4,0.7,0.7,1.1,0.9,1.4h-10C141.9,446.4,141.6,445.9,141.3,445.5z
			 M139.9,420.4c-0.8-0.7-2.4-1-4.7-1h-2.9v7.9h2.8c2.3,0,3.9-0.3,4.8-0.9c0.9-0.6,1.3-1.6,1.3-2.9
			C141.1,422.1,140.7,421.1,139.9,420.4z"/>
		<path fill="#B5B4A5" d="M188.7,438.8c-0.1,0.9-0.3,1.6-0.5,2.3c-0.2,0.7-0.5,1.2-0.9,1.7c-0.4,0.5-0.8,0.9-1.3,1.4
			c-0.9,0.9-2.3,1.7-4,2.4c-1.7,0.7-3.9,1-6.6,1c-2.8,0-5.3-0.3-7.4-1c-2.1-0.7-3.7-1.8-4.8-3.2c-0.7-0.9-1.2-2-1.5-3.1
			c-0.2-1.1-0.3-2.5-0.3-4v-23h8.6v21.9c0,1,0,1.8,0.1,2.4c0.1,0.6,0.3,1.1,0.6,1.5c0.9,1.2,2.3,1.8,4.3,1.8c0.9,0,1.6-0.1,2.3-0.4
			c0.6-0.3,1.2-0.6,1.6-1c0.2-0.2,0.3-0.3,0.5-0.6c0.1-0.2,0.3-0.5,0.4-0.9c0.1-0.4,0.2-0.8,0.3-1.4c0.1-0.6,0.1-1.3,0.1-2.2v-21.2
			h8.6v22.4C188.9,436.9,188.8,437.9,188.7,438.8z"/>
		<path fill="#B5B4A5" d="M223.3,446.8c-1.6,0.5-3.5,0.8-5.8,0.8c-2.5,0-4.7-0.3-6.6-0.8c-2-0.5-3.7-1.5-5.2-2.9
			c-3.5-3.2-5.2-7.5-5.2-12.9c0-2.3,0.2-4.3,0.7-6.1c0.4-1.8,1.1-3.5,2.1-5c1.5-2.4,3.5-4.2,6-5.5c2.6-1.3,5.3-1.9,8.3-1.9
			c0.9,0,1.8,0.1,2.7,0.2c0.9,0.1,1.8,0.3,2.6,0.6c0.8,0.3,1.6,0.5,2.3,0.8c0.7,0.3,1.3,0.7,1.8,1l-3.8,5.5c-0.9-0.5-1.8-1-2.8-1.3
			c-0.9-0.3-1.9-0.5-2.8-0.5c-1,0-2.1,0.2-3.1,0.6c-1,0.4-1.8,0.9-2.4,1.5c-0.9,0.9-1.5,1.9-1.8,3.2c-0.3,1.3-0.5,2.9-0.5,4.9
			c0,2.4,0.1,4.4,0.3,5.8c0.2,1.4,0.6,2.5,1.3,3.4c0.7,1,1.6,1.7,2.6,2.2c1,0.5,2.3,0.8,3.8,0.8c1.1,0,2.1-0.1,3-0.4
			c0.9-0.3,1.9-0.8,3-1.5l3.8,4.8C226.4,445.4,224.9,446.2,223.3,446.8z"/>
		<path fill="#B5B4A5" d="M246.7,429.5V447h-8.6v-33.7h8.6v15.1l9.4-15.1h10.4l-10.8,15.6l12.6,18.2h-11.1L246.7,429.5z"/>
		<path fill="#B5B4A5" d="M303,440.8c-0.8,1.4-1.8,2.7-3.2,3.7c-1.4,1-3.1,1.8-5,2.4c-2,0.6-4.1,0.8-6.5,0.8c-2.1,0-4.2-0.2-6.2-0.7
			c-2-0.5-4.1-1.2-6.2-2.2l2.8-6.4c1.8,0.7,3.4,1.3,5,1.8c1.5,0.5,3.2,0.7,5.1,0.7c2,0,3.5-0.3,4.5-0.8c1-0.5,1.5-1.4,1.5-2.5
			c0-0.9-0.3-1.7-1-2.3c-0.7-0.6-1.8-1.1-3.4-1.4l-4.2-1c-1.8-0.5-3.4-1.1-4.6-1.9c-1.2-0.8-2.1-1.8-2.8-2.9
			c-0.9-1.7-1.4-3.4-1.4-5.2c0-1.6,0.3-3,1-4.3c0.6-1.3,1.6-2.4,2.8-3.4c1.2-0.9,2.6-1.7,4.3-2.2c1.6-0.5,3.5-0.8,5.5-0.8
			c1.1,0,2.3,0.1,3.5,0.2c1.2,0.2,2.4,0.4,3.5,0.7c1.1,0.3,2.2,0.7,3.3,1.1c1,0.4,1.9,0.9,2.7,1.4l-4,5.8c-3.2-1.7-6.1-2.5-8.7-2.5
			c-1.3,0-2.4,0.3-3.3,0.8c-0.9,0.6-1.3,1.3-1.3,2.2c0,0.8,0.2,1.4,0.7,1.9c0.5,0.4,1.4,0.8,2.9,1.1l4.6,1c3,0.7,5.3,1.9,7,3.5
			c1.7,1.6,2.6,3.7,2.6,6.3C304.1,437.7,303.7,439.3,303,440.8z"/>
		<path fill="#B5B4A5" d="M361.4,444.4c-0.5,0.4-1,0.8-1.7,1.2c-0.7,0.4-1.4,0.7-2,1c-2.1,0.8-4.8,1.2-8.1,1.2c-5,0-8.8-1-11.5-3
			c-2.7-2-4-4.9-4-8.6c0-4.7,2.6-8.2,7.7-10.6c-1.1-0.9-2-1.6-2.6-2.3c-0.6-0.7-1.1-1.4-1.4-2.1c-0.3-0.6-0.5-1.3-0.7-2.2
			c-0.2-0.9-0.3-1.8-0.3-2.6c0-1.5,0.3-2.9,0.9-4.2c0.6-1.3,1.4-2.4,2.5-3.3c1.1-0.9,2.4-1.6,3.9-2.1c1.5-0.5,3.2-0.8,5-0.8
			c1.8,0,3.5,0.2,5,0.7c1.5,0.5,2.8,1.1,3.9,2c1.1,0.9,2,1.9,2.6,3.1c0.6,1.2,0.9,2.5,0.9,3.9c0,1.1-0.2,2.2-0.6,3.3
			c-0.4,1-0.9,1.9-1.5,2.6c-0.6,0.7-1.3,1.3-2.1,1.8c-0.8,0.5-1.9,1.2-3.3,2l-0.6,0.3l7.1,6.8c0.1-0.5,0.2-0.9,0.3-1.3
			c0.1-0.3,0.1-0.7,0.2-1.1c0-0.4,0-0.9,0.1-1.4c0-0.6,0-1.3,0-2.2v-0.4h6.9v0.4c0,4.5-0.7,8.4-2,11.4l9.2,9.1H364L361.4,444.4z
			 M343,435.6c0,2,0.6,3.5,1.8,4.5c1.2,1,2.9,1.6,5.1,1.6c3,0,5.1-0.7,6.5-2.1l-10-9.7C344.1,431.3,343,433.2,343,435.6z M352,413.1
			c-0.7-0.8-1.6-1.2-2.7-1.2c-1.2,0-2.1,0.4-2.9,1.1c-0.7,0.7-1.1,1.7-1.1,2.9c0,0.5,0,0.9,0.1,1.2c0.1,0.4,0.2,0.8,0.5,1.2
			c0.2,0.4,0.6,0.9,1,1.3c0.4,0.5,0.9,1,1.6,1.7l0.5,0.5c2.7-1.4,4.1-3.3,4.1-5.8C353.1,414.8,352.8,413.9,352,413.1z"/>
		<path fill="#B5B4A5" d="M418.3,420v27h-8.6v-27H401v-6.8h27.3l-1.6,6.8H418.3z"/>
		<path fill="#B5B4A5" d="M454.7,445.5c-0.3-0.4-0.6-0.9-0.8-1.3c-0.2-0.4-0.5-0.8-0.8-1.3c-0.3-0.5-0.6-1-1-1.6
			c-1-1.7-1.9-3.1-2.5-4.1c-0.6-1-1.2-1.8-1.6-2.4c-0.4-0.6-0.7-0.9-0.9-1.1c-0.2-0.2-0.4-0.3-0.6-0.3h-0.5V447h-8.3v-33.7h13
			c1.8,0,3.6,0.2,5.3,0.6c1.7,0.4,3.1,1.1,4.2,2.2c1.1,1.1,1.9,2.3,2.3,3.5c0.4,1.2,0.7,2.5,0.7,3.9c0,1.2-0.2,2.3-0.6,3.4
			c-0.4,1-0.9,2-1.5,2.8c-0.6,0.8-1.3,1.5-2.1,2.1c-0.8,0.6-1.6,0.9-2.5,1.1c0.4,0.5,0.8,1.1,1.4,1.9c0.6,0.8,1.2,1.7,1.8,2.6
			c0.6,1,1.3,2,1.9,3c0.7,1,1.3,2,1.8,2.9c0.6,0.9,1,1.7,1.4,2.4c0.4,0.7,0.7,1.1,0.9,1.4h-10C455.3,446.4,455,445.9,454.7,445.5z
			 M453.3,420.4c-0.8-0.7-2.4-1-4.7-1h-2.9v7.9h2.8c2.3,0,3.9-0.3,4.8-0.9c0.9-0.6,1.3-1.6,1.3-2.9
			C454.5,422.1,454.1,421.1,453.3,420.4z"/>
		<path fill="#B5B4A5" d="M494.2,439.9h-10l-2.4,7.1H473l12.2-33.9h8.9l11.5,33.9h-8.8L494.2,439.9z M486,433.7h6.5l-3.1-13.1
			L486,433.7z"/>
		<path fill="#B5B4A5" d="M514.8,413.3h8.6V447h-8.6V413.3z"/>
		<path fill="#B5B4A5" d="M537,447v-33.7h8.6v27h13l-1.8,6.8H537z"/>
		<path fill="#B5B4A5" d="M568.1,413.3h21.4l-1.2,6.5h-11.9v6.5h10v6.5h-10v7.6h13.5v6.8h-21.8V413.3z"/>
		<path fill="#B5B4A5" d="M617.8,445.5c-0.3-0.4-0.6-0.9-0.8-1.3c-0.2-0.4-0.5-0.8-0.8-1.3c-0.3-0.5-0.6-1-1-1.6
			c-1-1.7-1.9-3.1-2.5-4.1c-0.6-1-1.2-1.8-1.6-2.4c-0.4-0.6-0.7-0.9-0.9-1.1c-0.2-0.2-0.4-0.3-0.6-0.3H609V447h-8.3v-33.7h13
			c1.8,0,3.6,0.2,5.3,0.6c1.7,0.4,3.1,1.1,4.2,2.2c1.1,1.1,1.9,2.3,2.3,3.5c0.4,1.2,0.7,2.5,0.7,3.9c0,1.2-0.2,2.3-0.6,3.4
			c-0.4,1-0.9,2-1.5,2.8c-0.6,0.8-1.3,1.5-2.1,2.1c-0.8,0.6-1.6,0.9-2.5,1.1c0.4,0.5,0.8,1.1,1.4,1.9c0.6,0.8,1.2,1.7,1.8,2.6
			c0.6,1,1.3,2,1.9,3c0.7,1,1.3,2,1.8,2.9c0.6,0.9,1,1.7,1.4,2.4c0.4,0.7,0.7,1.1,0.9,1.4h-10C618.5,446.4,618.1,445.9,617.8,445.5z
			 M616.4,420.4c-0.8-0.7-2.4-1-4.7-1h-2.9v7.9h2.8c2.3,0,3.9-0.3,4.8-0.9c0.9-0.6,1.3-1.6,1.3-2.9
			C617.6,422.1,617.2,421.1,616.4,420.4z"/>
		<path fill="#B5B4A5" d="M664.1,440.8c-0.8,1.4-1.8,2.7-3.2,3.7c-1.4,1-3.1,1.8-5,2.4c-2,0.6-4.1,0.8-6.5,0.8
			c-2.1,0-4.2-0.2-6.2-0.7c-2-0.5-4.1-1.2-6.2-2.2l2.8-6.4c1.8,0.7,3.4,1.3,5,1.8c1.5,0.5,3.2,0.7,5.1,0.7c2,0,3.5-0.3,4.5-0.8
			c1-0.5,1.5-1.4,1.5-2.5c0-0.9-0.3-1.7-1-2.3c-0.7-0.6-1.8-1.1-3.4-1.4l-4.2-1c-1.8-0.5-3.4-1.1-4.6-1.9c-1.2-0.8-2.1-1.8-2.8-2.9
			c-0.9-1.7-1.4-3.4-1.4-5.2c0-1.6,0.3-3,1-4.3c0.6-1.3,1.6-2.4,2.8-3.4c1.2-0.9,2.6-1.7,4.3-2.2c1.6-0.5,3.5-0.8,5.5-0.8
			c1.1,0,2.3,0.1,3.5,0.2c1.2,0.2,2.4,0.4,3.5,0.7c1.1,0.3,2.2,0.7,3.3,1.1c1,0.4,1.9,0.9,2.7,1.4l-4,5.8c-3.2-1.7-6.1-2.5-8.7-2.5
			c-1.3,0-2.4,0.3-3.3,0.8c-0.9,0.6-1.3,1.3-1.3,2.2c0,0.8,0.2,1.4,0.7,1.9c0.5,0.4,1.4,0.8,2.9,1.1l4.6,1c3,0.7,5.3,1.9,7,3.5
			c1.7,1.6,2.6,3.7,2.6,6.3C665.2,437.7,664.8,439.3,664.1,440.8z"/>
	</g>
	<line clip-path="url(#SVGID_4_)" fill="none" stroke="#B5B4A5" stroke-width="4.86" x1="87" y1="392.1" x2="666.8" y2="392.1"/>
</g>
</svg>
